<svg width="1307" height="792" viewBox="0 0 1307 792" fill="none" xmlns="http://www.w3.org/2000/svg">
<rect width="1307" height="792" fill="white"/>
<path d="M170.72 152.12C154.8 152.12 146.56 143.08 146.56 123V91.4H160.8V124.52C160.8 135.8 164.16 139.8 170.72 139.8C177.2 139.8 180.8 135.8 180.8 124.52V91.4H194.56V123C194.56 143.08 186.56 152.12 170.72 152.12ZM207.896 151V91.4H222.216V115H222.456L239.336 91.4H255.016L237.016 115.32L258.376 151H242.776L228.696 126.6L222.216 135.4V151H207.896ZM264.536 151V91.4H278.856V115H279.096L295.976 91.4H311.656L293.656 115.32L315.016 151H299.416L285.336 126.6L278.856 135.4V151H264.536ZM321.177 151V91.4H335.497V151H321.177ZM367.427 151V91.4H381.747V139H404.947V151H367.427ZM435.815 152.12C419.575 152.12 408.535 140.44 408.535 120.92C408.535 101.4 419.575 90.36 435.815 90.36C452.055 90.36 463.095 101.48 463.095 120.92C463.095 140.44 452.055 152.12 435.815 152.12ZM435.815 139.8C443.655 139.8 448.535 132.44 448.535 120.92C448.535 109.4 443.655 102.6 435.815 102.6C427.975 102.6 423.175 109.4 423.175 120.92C423.175 132.44 427.975 139.8 435.815 139.8ZM500.946 152.12C484.466 152.12 471.426 141.72 471.426 121.56C471.426 101.72 484.786 90.36 500.706 90.36C509.426 90.36 515.666 94.04 519.746 98.12L512.226 107.24C509.266 104.6 506.146 102.6 501.186 102.6C492.386 102.6 486.066 109.48 486.066 121.08C486.066 132.92 491.346 139.8 502.466 139.8C504.546 139.8 506.786 139.24 508.066 138.28V128.68H498.626V117H520.786V144.84C516.626 148.84 509.266 152.12 500.946 152.12ZM557.378 152.12C541.138 152.12 530.098 140.44 530.098 120.92C530.098 101.4 541.138 90.36 557.378 90.36C573.618 90.36 584.658 101.48 584.658 120.92C584.658 140.44 573.618 152.12 557.378 152.12ZM557.378 139.8C565.218 139.8 570.098 132.44 570.098 120.92C570.098 109.4 565.218 102.6 557.378 102.6C549.538 102.6 544.738 109.4 544.738 120.92C544.738 132.44 549.538 139.8 557.378 139.8Z" fill="#444444"/>
<path d="M801.685 564.352H797.29V562.052H801.685V564.352ZM788.838 567.838C790.996 567.838 792.754 567.794 794.111 567.706C795.479 567.608 796.851 567.433 798.228 567.179L798.506 569.435C797.08 569.688 795.679 569.859 794.302 569.947C792.925 570.025 791.104 570.064 788.838 570.064H787.139V567.838H788.838ZM797.144 559.298H789.805V568.819H787.139V557.071H797.144V559.298ZM796.089 564.542H788.97V562.374H796.089V564.542ZM808.35 581.476H805.61V574.957H790.405V572.687H808.35V581.476ZM808.35 571.515H805.698V555.255H808.35V571.515ZM803.208 571.339H800.542V555.797H803.208V571.339ZM824.741 558.961C824.741 560.797 824.248 562.521 823.262 564.132C822.285 565.733 820.981 567.091 819.351 568.204C817.72 569.317 815.938 570.089 814.004 570.519L812.759 568.189C814.429 567.857 815.996 567.232 817.461 566.314C818.926 565.396 820.098 564.288 820.977 562.989C821.855 561.69 822.295 560.348 822.295 558.961V556.998H824.741V558.961ZM825.225 558.961C825.225 560.338 825.669 561.681 826.558 562.989C827.446 564.298 828.628 565.416 830.103 566.344C831.577 567.262 833.145 567.877 834.805 568.189L833.56 570.519C831.646 570.089 829.873 569.322 828.242 568.219C826.611 567.115 825.303 565.758 824.316 564.146C823.33 562.535 822.837 560.807 822.837 558.961V556.998H825.225V558.961ZM835.918 578.033H811.895V575.733H835.918V578.033ZM859.136 571.456H840.825V569.215H859.136V571.456ZM861.846 578.18H837.822V575.895H861.846V578.18ZM858.872 559.693H843.667V569.859H840.825V557.379H858.872V559.693ZM858.286 565.406H842.803V563.209H858.286V565.406ZM895.098 578.341H871.074V576.041H895.098V578.341ZM884.39 577.022H881.665V570.621H884.39V577.022ZM892.153 565.289H876.772V570.328H874.004V563.062H889.414V559.371H873.96V557.101H892.153V565.289ZM892.769 571.412H874.004V569.127H892.769V571.412ZM916.499 560.016H899.521V557.76H916.499V560.016ZM920.938 577.931H897.002V575.646H920.938V577.931ZM908.853 576.832H906.113V566.388H908.853V576.832ZM918.242 560.338C918.242 561.891 918.223 563.194 918.184 564.249C918.145 565.294 918.057 566.534 917.92 567.97C917.783 569.396 917.563 570.938 917.261 572.599L914.434 572.291C914.756 570.719 914.99 569.234 915.137 567.838C915.283 566.441 915.371 565.206 915.4 564.132C915.439 563.048 915.459 561.783 915.459 560.338V557.76H918.242V560.338Z" fill="black"/>
<g clip-path="url(#clip0_444_31608)">
<path d="M666.89 402.209C677.96 408.269 694.49 411.289 716.46 411.289C738.43 411.289 754.96 408.259 766.04 402.209C777.12 396.149 782.66 387.209 782.66 375.379C782.66 363.549 777.12 354.599 766.04 348.549C754.96 342.489 738.43 339.469 716.46 339.469C694.49 339.469 677.96 342.469 666.89 348.479C655.81 354.489 650.27 363.459 650.27 375.379C650.27 387.299 655.81 396.149 666.89 402.209ZM700.76 369.329C704 368.009 709.23 367.359 716.46 367.359C723.69 367.359 728.93 368.019 732.16 369.329C735.4 370.649 737.02 372.659 737.02 375.389C737.02 378.119 735.4 380.129 732.16 381.439C728.92 382.759 723.69 383.409 716.46 383.409C709.23 383.409 704 382.749 700.76 381.439C697.52 380.129 695.9 378.109 695.9 375.389C695.9 372.669 697.52 370.649 700.76 369.329Z" fill="#FF8AA3"/>
<path d="M903.92 360.45C900.45 354.72 896.03 350.36 890.68 347.35C885.33 344.34 879.56 342.84 873.36 342.84C865.38 342.84 857.67 345.28 850.26 350.16C850.26 350.16 849.3 351.01 848.32 352.42C850.44 346.13 848.59 339.47 848.59 339.47L865.63 340.38V334.75H816.75V339.47C816.75 339.47 841.61 335.79 844.1 339.47C846.08 342.39 844.93 348.77 844.36 351.31C843.33 350.5 842.24 349.76 841.09 349.12C836.77 346.73 832.12 345.53 827.15 345.53C819.92 345.53 813.07 347.83 806.59 352.43C806.59 352.43 786.37 379.28 809.41 380.46C811.47 378.87 813.59 378.07 815.75 378.07C817.91 378.07 819.74 378.84 821.24 380.39C822.74 381.94 823.63 384.12 823.91 386.94C824 387.88 824.05 389.25 824.05 391.03C824.05 397.98 822.38 404.34 819.05 410.11C815.72 415.88 810.76 420.84 804.19 424.97C804.19 424.97 798.55 427.59 793.91 430.71V414.83H639V441.45H692.8C692.61 452.15 693.27 462.76 694.77 473.28H738.15C739.65 462.76 740.31 452.15 740.12 441.45H787.72C788.35 448.41 793.55 458.7 814.49 457.09C819.05 455.49 823.36 453.24 827.45 450.47C826.01 453.6 826.9 456.8 832.45 459.58C850.79 468.75 860.11 468.08 860.11 468.08C874.29 462.63 886.21 453.64 895.89 441.11C905.56 428.58 910.39 411.88 910.39 391.04C910.39 387.75 910.25 384.42 909.97 381.04C909.41 373.06 907.39 366.21 903.91 360.48L903.92 360.45ZM839.06 440.26C843.98 434.69 848.07 428.01 851.24 420.09C855.09 410.47 857.01 399.46 857.01 387.06C857.01 385.28 856.92 382.51 856.73 378.75L856.59 377.34C858.28 376.12 859.97 375.51 861.66 375.51C864.01 375.51 866.12 376.57 868 378.68C869.88 380.79 871 383.68 871.38 387.34C871.57 389.97 871.66 391.89 871.66 393.11C871.66 402.22 869.43 410.53 864.97 418.04C860.51 425.55 854.33 431.7 846.45 436.49C846.45 436.49 843.03 437.96 839.06 440.25V440.26Z" fill="#FF8AA3"/>
<path d="M962.79 339.461H918.85C917.53 361.341 916.88 382.421 916.88 402.691C916.88 426.821 917.78 450.341 919.56 473.251H958.57C961.95 441.231 963.64 409.261 963.64 377.341C963.64 364.761 963.36 352.131 962.79 339.461Z" fill="#FF8AA3"/>
<path d="M1012.3 401.23H999.78C984.184 401.23 971.54 413.874 971.54 429.47V432.05C971.54 447.647 984.184 460.29 999.78 460.29H1012.3C1027.9 460.29 1040.54 447.647 1040.54 432.05V429.47C1040.54 413.874 1027.9 401.23 1012.3 401.23Z" fill="#EFDEC6"/>
<path d="M1058.54 405.789C1069.86 405.789 1079.04 396.611 1079.04 385.289C1079.04 373.967 1069.86 364.789 1058.54 364.789C1047.22 364.789 1038.04 373.967 1038.04 385.289C1038.04 396.611 1047.22 405.789 1058.54 405.789Z" fill="#EFDEC6"/>
<path d="M949.54 405.789C960.862 405.789 970.04 396.611 970.04 385.289C970.04 373.967 960.862 364.789 949.54 364.789C938.218 364.789 929.04 373.967 929.04 385.289C929.04 396.611 938.218 405.789 949.54 405.789Z" fill="#EFDEC6"/>
<path d="M949.54 399.289C957.272 399.289 963.54 393.021 963.54 385.289C963.54 377.557 957.272 371.289 949.54 371.289C941.808 371.289 935.54 377.557 935.54 385.289C935.54 393.021 941.808 399.289 949.54 399.289Z" fill="#FFF4EB"/>
<path d="M984.4 447.262C991.304 447.262 996.9 445.023 996.9 442.262C996.9 439.5 991.304 437.262 984.4 437.262C977.497 437.262 971.9 439.5 971.9 442.262C971.9 445.023 977.497 447.262 984.4 447.262Z" fill="#FFF4EB"/>
<path d="M1059.54 399.289C1067.27 399.289 1073.54 393.021 1073.54 385.289C1073.54 377.557 1067.27 371.289 1059.54 371.289C1051.81 371.289 1045.54 377.557 1045.54 385.289C1045.54 393.021 1051.81 399.289 1059.54 399.289Z" fill="#FFF4EB"/>
<path d="M1021.79 332.789H989.29C965.956 332.789 947.04 351.705 947.04 375.039V377.039C947.04 400.373 965.956 419.289 989.29 419.289H1021.79C1045.12 419.289 1064.04 400.373 1064.04 377.039V375.039C1064.04 351.705 1045.12 332.789 1021.79 332.789Z" fill="#EFDEC6"/>
<path d="M1016.25 417.25H994.83C975.05 417.25 958.87 402.86 958.87 385.28C958.87 367.7 970.54 352.29 994.83 353.31C1004.04 353.7 1005.54 361.29 1005.54 361.29C1005.54 361.29 1008.03 353.32 1016.25 353.31C1042.54 353.29 1052.21 367.7 1052.21 385.28C1052.21 402.86 1036.03 417.25 1016.25 417.25Z" fill="#FFF4EB"/>
<path opacity="0.42" d="M974.54 402.789C981.444 402.789 987.04 397.193 987.04 390.289C987.04 383.386 981.444 377.789 974.54 377.789C967.636 377.789 962.04 383.386 962.04 390.289C962.04 397.193 967.636 402.789 974.54 402.789Z" fill="url(#paint0_radial_444_31608)"/>
<path opacity="0.42" d="M1037.04 403.289C1043.94 403.289 1049.54 397.693 1049.54 390.789C1049.54 383.886 1043.94 378.289 1037.04 378.289C1030.14 378.289 1024.54 383.886 1024.54 390.789C1024.54 397.693 1030.14 403.289 1037.04 403.289Z" fill="url(#paint1_radial_444_31608)"/>
<path d="M1018.9 386.262C1021.66 386.262 1023.9 384.023 1023.9 381.262C1023.9 378.5 1021.66 376.262 1018.9 376.262C1016.14 376.262 1013.9 378.5 1013.9 381.262C1013.9 384.023 1016.14 386.262 1018.9 386.262Z" fill="black"/>
<path d="M1024.87 316.979C1024.87 316.979 1026.16 311.619 1025.8 310.239C1025.44 308.859 1030.51 307.849 1032.06 311.589C1033.61 315.329 1027.87 319.459 1027.87 319.459C1027.87 319.459 1028.75 339.039 998.649 334.639C998.649 334.639 980.9 328.839 982.51 318.969C982.51 318.969 984.089 315.899 988.059 317.549C992.029 319.199 1002.13 323.989 1007.68 322.569C1013.23 321.149 1021.87 314.499 1024.87 316.979Z" fill="#FEDA00"/>
<path d="M968.28 391.94C968.97 390.68 969.81 389.55 970.81 388.52C971 388.33 971 388.01 970.81 387.81C970.62 387.61 970.29 387.62 970.1 387.81C969.05 388.89 968.14 390.11 967.41 391.43C967.28 391.67 967.35 391.98 967.59 392.11C967.83 392.24 968.14 392.17 968.27 391.93L968.28 391.94Z" fill="#FFA8B8"/>
<path d="M971.84 392.94C973.19 391.81 974.54 390.69 975.9 389.56C976.11 389.39 976.08 389.03 975.9 388.85C975.69 388.64 975.4 388.68 975.19 388.85C973.84 389.98 972.49 391.1 971.13 392.23C970.92 392.4 970.95 392.76 971.13 392.94C971.34 393.15 971.63 393.11 971.84 392.94Z" fill="#FFA8B8"/>
<path d="M976.94 393.61C977.38 393.1 977.86 392.63 978.38 392.19C978.64 391.97 978.82 391.83 979.1 391.63C979.38 391.43 979.67 391.24 979.97 391.06C980.19 390.92 980.3 390.61 980.15 390.38C980 390.15 979.71 390.06 979.47 390.2C978.27 390.93 977.17 391.84 976.25 392.9C976.08 393.1 976.04 393.42 976.25 393.61C976.44 393.78 976.77 393.82 976.96 393.61H976.94Z" fill="#FFA8B8"/>
<path d="M1032.56 389.811L1030.37 392.701C1030.21 392.911 1030.33 393.271 1030.55 393.381C1030.81 393.521 1031.06 393.421 1031.23 393.201L1033.42 390.311C1033.58 390.101 1033.46 389.741 1033.24 389.631C1032.98 389.491 1032.73 389.591 1032.56 389.811Z" fill="#FFA8B8"/>
<path d="M1036.92 389.48C1036.48 390.79 1035.73 392 1034.73 392.97C1034.27 393.42 1034.98 394.13 1035.44 393.68C1036.56 392.58 1037.39 391.23 1037.88 389.75C1037.96 389.49 1037.78 389.2 1037.53 389.13C1037.26 389.06 1037 389.22 1036.91 389.48H1036.92Z" fill="#FFA8B8"/>
<path d="M1041.14 389.71C1040.86 390.87 1040.34 391.97 1039.62 392.89C1039.45 393.1 1039.41 393.39 1039.62 393.6C1039.79 393.77 1040.16 393.81 1040.33 393.6C1041.17 392.53 1041.78 391.3 1042.11 389.98C1042.17 389.72 1042.03 389.44 1041.76 389.36C1041.49 389.28 1041.21 389.45 1041.14 389.71Z" fill="#FFA8B8"/>
<path d="M948.87 363.77C948.78 363.77 948.68 363.76 948.59 363.73C948.06 363.57 947.76 363.02 947.92 362.49C948.02 362.17 957.89 330.28 992.42 331.79C992.97 331.81 993.4 332.28 993.38 332.83C993.36 333.38 992.91 333.85 992.34 333.79C959.31 332.37 949.94 362.75 949.85 363.06C949.72 363.49 949.32 363.78 948.89 363.78L948.87 363.77Z" fill="black"/>
<path d="M972.74 416.899C972.62 416.899 972.5 416.879 972.38 416.829C958.39 411.359 951.76 398.519 951.48 397.979C951.23 397.489 951.43 396.889 951.92 396.639C952.41 396.389 953.01 396.589 953.26 397.079C953.32 397.209 959.85 409.789 973.1 414.979C973.61 415.179 973.87 415.759 973.67 416.279C973.52 416.669 973.14 416.919 972.74 416.919V416.899Z" fill="black"/>
<path d="M949.78 406.859C945.62 406.859 942.31 405.549 942.12 405.469C941.92 405.389 924.41 397.679 928.46 381.039C932.49 364.479 948.12 363.789 948.27 363.789C948.78 363.739 949.28 364.199 949.3 364.759C949.32 365.309 948.89 365.769 948.33 365.789C947.75 365.809 934.05 366.459 930.39 381.519C926.74 396.529 942.71 403.559 942.88 403.629C942.92 403.639 948.77 405.949 954.29 404.209C954.82 404.049 955.38 404.339 955.54 404.859C955.71 405.389 955.41 405.949 954.89 406.109C953.15 406.659 951.4 406.859 949.78 406.859Z" fill="black"/>
<path d="M947.84 386.26C947.35 386.26 946.93 385.91 946.85 385.41C946.81 385.15 945.94 379.42 946.13 372.74C943.96 373.34 939.36 375.22 937.35 380.74C937.16 381.26 936.59 381.52 936.07 381.34C935.55 381.15 935.28 380.58 935.47 380.06C938.53 371.68 946.7 370.56 947.05 370.51C947.34 370.48 947.64 370.57 947.85 370.77C948.07 370.97 948.18 371.26 948.17 371.55C947.83 378.57 948.81 385.05 948.82 385.12C948.9 385.67 948.53 386.18 947.98 386.26C947.93 386.26 947.88 386.27 947.83 386.27L947.84 386.26Z" fill="black"/>
<path d="M1061.93 362.911C1061.52 362.911 1061.14 362.661 1060.99 362.261C1050.74 334.831 1024.75 333.891 1024.49 333.891C1023.94 333.881 1023.5 333.421 1023.51 332.871C1023.52 332.321 1023.97 331.901 1024.53 331.891C1024.81 331.891 1052.13 332.881 1062.86 361.561C1063.05 362.081 1062.79 362.651 1062.27 362.851C1062.15 362.891 1062.04 362.911 1061.92 362.911H1061.93Z" fill="black"/>
<path d="M1040.54 415.868C1040.1 415.868 1039.7 415.578 1039.58 415.138C1039.43 414.608 1039.74 414.058 1040.27 413.898C1044.95 412.568 1052.49 404.498 1052.57 404.418C1052.81 404.158 1053.16 404.048 1053.5 404.118C1071.2 407.718 1076.26 393.578 1076.46 392.978C1078.43 386.668 1078.17 381.108 1075.67 376.468C1071.56 368.848 1062.7 366.228 1062.61 366.198C1062.08 366.048 1061.77 365.488 1061.92 364.958C1062.07 364.428 1062.62 364.118 1063.15 364.268C1063.55 364.378 1072.9 367.128 1077.42 375.488C1080.19 380.618 1080.51 386.708 1078.36 393.588C1078.3 393.778 1072.6 409.708 1053.64 406.168C1051.98 407.898 1045.42 414.488 1040.81 415.798C1040.72 415.828 1040.63 415.838 1040.54 415.838V415.868Z" fill="black"/>
<path d="M999.73 396.07C999.73 396.07 997.65 401.32 1000.78 402.79C1003.91 404.26 1008.78 402.39 1008.35 397.32L1003.92 394.25L999.74 396.06L999.73 396.07Z" fill="#FFA8B8"/>
<path d="M1010.81 418.761C1006.21 418.761 1002.94 418.341 1002.3 418.261C970.85 420.161 961.84 400.131 961.75 399.931C961.53 399.421 961.76 398.841 962.27 398.621C962.78 398.401 963.36 398.631 963.58 399.141C963.66 399.331 972.21 418.141 1002.27 416.261C1002.34 416.261 1002.41 416.261 1002.48 416.261C1002.83 416.311 1037.84 421.401 1048.01 398.141C1048.23 397.641 1048.82 397.401 1049.33 397.621C1049.84 397.841 1050.07 398.431 1049.85 398.941C1042.35 416.111 1022.38 418.751 1010.81 418.751V418.761Z" fill="black"/>
<path d="M960.81 396.61C960.4 396.61 960.02 396.36 959.87 395.96C959.28 394.35 954.34 379.83 963.65 365.67C971.78 353.31 988.35 352.42 989.05 352.39C989.45 352.33 1001.13 350.71 1004.92 357.52L1005.57 358.94C1007.36 355.92 1011.96 350.86 1022.1 352.57C1034.64 354.69 1037.86 356.55 1038.67 357.32C1040.52 358.41 1059.29 370.28 1051.5 395.59C1051.34 396.12 1050.78 396.42 1050.25 396.25C1049.72 396.09 1049.43 395.53 1049.59 395C1057.25 370.12 1038.37 359.43 1037.57 358.99C1037.46 358.93 1037.36 358.85 1037.28 358.76C1037.11 358.6 1034.86 356.75 1021.76 354.54C1009.38 352.46 1006.61 361.21 1006.5 361.58C1006.38 361.98 1006.03 362.26 1005.61 362.29C1005.2 362.32 1004.8 362.08 1004.63 361.71L1003.13 358.42C1000.05 352.89 989.35 354.37 989.24 354.38C988.98 354.4 972.88 355.27 965.32 366.77C956.55 380.1 961.19 393.75 961.75 395.27C961.94 395.79 961.68 396.36 961.16 396.55C961.05 396.59 960.93 396.61 960.81 396.61Z" fill="black"/>
<path d="M983.81 320.059C983.81 320.059 991.81 325.059 993.81 326.059C995.81 327.059 1011.81 332.059 1018.81 326.059C1025.81 320.059 1025.81 319.059 1025.81 319.059C1025.81 319.059 1030.81 313.059 1029.81 311.059C1028.81 309.059 1031.81 312.059 1031.81 312.059L1030.81 317.059L1027.81 320.059L1027.91 323.409C1027.91 323.409 1026.39 334.839 1012.6 335.449C998.81 336.059 993.55 333.509 993.55 333.509C993.55 333.509 980.81 325.059 981.81 321.059C982.81 317.059 983.81 320.059 983.81 320.059Z" fill="#F6A800"/>
<path d="M989.67 331.31C989.47 331.31 989.27 331.25 989.1 331.13C988.81 330.93 982.03 326.13 981.47 321.29C981.3 319.81 981.7 318.48 982.66 317.33C982.82 316.96 983.14 316.56 983.69 316.29C985.61 315.33 989.31 316.33 995.01 319.35C1004.77 324.52 1010.4 320.61 1010.63 320.44C1011.44 319.8 1018.97 314.06 1023.82 315.5C1024.35 315.66 1024.65 316.21 1024.49 316.74C1024.33 317.27 1023.78 317.57 1023.25 317.41C1019.97 316.43 1013.9 320.41 1011.83 322.03C1011.53 322.25 1005 326.9 994.07 321.11C986.39 317.04 984.65 318.01 984.49 318.12C984.45 318.26 984.38 318.38 984.28 318.49C983.61 319.24 983.34 320.08 983.45 321.05C983.83 324.33 988.48 328.25 990.24 329.48C990.69 329.8 990.8 330.42 990.49 330.87C990.3 331.15 989.99 331.3 989.67 331.3V331.31Z" fill="black"/>
<path d="M1006.32 336.091C1000.85 336.091 996.3 335.151 995.43 334.421C995.01 334.071 994.95 333.441 995.3 333.011C995.65 332.581 996.28 332.531 996.71 332.881C997.94 333.601 1010.25 335.621 1018.96 331.871C1027.47 328.211 1026.91 319.891 1026.88 319.541C1026.85 319.161 1027.04 318.801 1027.36 318.601C1030.58 316.651 1031.04 313.951 1031.07 311.571C1031.07 311.511 1030.91 311.171 1030.16 310.771C1028.9 310.081 1027.36 309.911 1026.79 310.051C1027.56 312.851 1026.02 316.501 1025.95 316.661C1025.73 317.171 1025.15 317.401 1024.64 317.191C1024.13 316.971 1023.9 316.391 1024.11 315.881C1024.5 314.971 1025.38 312.251 1024.84 310.541C1024.6 309.781 1024.78 309.081 1025.32 308.601C1026.56 307.511 1029.19 308.121 1030.66 308.791C1032.22 309.511 1033.07 310.501 1033.06 311.601C1033.03 314.241 1032.51 317.551 1028.88 320.001C1028.86 322.261 1028.17 330.091 1019.74 333.711C1015.6 335.491 1010.66 336.081 1006.31 336.081L1006.32 336.091Z" fill="black"/>
<path d="M1012.38 398.331C1008.22 398.331 1005.07 396.381 1003.82 395.461C997.72 398.851 992.83 397.171 992.61 397.091C992.09 396.901 991.82 396.331 992 395.811C992.18 395.291 992.75 395.021 993.27 395.201C993.45 395.261 997.85 396.731 1003.38 393.391C1003.75 393.161 1004.23 393.211 1004.56 393.501C1004.6 393.541 1009.15 397.431 1015.08 395.991C1015.61 395.861 1016.16 396.191 1016.29 396.731C1016.42 397.271 1016.09 397.811 1015.55 397.941C1014.44 398.211 1013.38 398.321 1012.37 398.321L1012.38 398.331Z" fill="black"/>
<path d="M988.48 385.29C986.58 385.29 985.08 384.72 984.03 383.6C982.37 381.82 982.53 379.33 982.53 379.22C982.57 378.67 983.06 378.26 983.6 378.3C984.15 378.34 984.56 378.82 984.53 379.37C984.53 379.42 984.44 381.13 985.5 382.25C986.16 382.95 987.16 383.3 988.48 383.3H988.52C989.88 383.3 990.9 382.92 991.57 382.21C992.62 381.08 992.53 379.39 992.53 379.37C992.5 378.82 992.91 378.34 993.46 378.31C993.99 378.27 994.48 378.68 994.53 379.23C994.53 379.33 994.7 381.78 993.06 383.56C992 384.71 990.48 385.29 988.54 385.31H988.48V385.29Z" fill="black"/>
<path d="M996.25 375.9C996.2 375.9 996.15 375.9 996.1 375.88C993.35 374.98 989.68 370.77 989.53 370.59C989.35 370.38 989.37 370.07 989.58 369.88C989.79 369.69 990.1 369.72 990.29 369.93C990.33 369.97 993.93 374.11 996.41 374.92C996.67 375.01 996.82 375.29 996.73 375.55C996.66 375.76 996.47 375.9 996.25 375.9Z" fill="black"/>
<path d="M1018.95 386.578C1021.71 386.578 1023.95 384.34 1023.95 381.578C1023.95 378.817 1021.71 376.578 1018.95 376.578C1016.19 376.578 1013.95 378.817 1013.95 381.578C1013.95 384.34 1016.19 386.578 1018.95 386.578Z" fill="white"/>
<path d="M1018.95 375.578C1015.64 375.578 1012.95 378.268 1012.95 381.578C1012.95 384.888 1015.64 387.578 1018.95 387.578C1022.26 387.578 1024.95 384.888 1024.95 381.578C1024.95 378.268 1022.26 375.578 1018.95 375.578ZM1017.84 381.888C1017.67 382.058 1017.47 382.218 1017.27 382.348C1017.12 382.448 1016.94 382.508 1016.77 382.568C1016.71 382.588 1016.66 382.608 1016.6 382.618C1016.32 382.688 1016.05 382.688 1015.77 382.618C1015.65 382.568 1015.52 382.518 1015.4 382.458C1015.04 382.268 1014.82 381.898 1014.69 381.528C1014.66 381.448 1014.64 381.358 1014.62 381.268C1014.59 381.068 1014.55 380.858 1014.55 380.658C1014.55 380.448 1014.59 380.238 1014.62 380.038C1014.63 379.958 1014.65 379.878 1014.68 379.808C1014.99 378.888 1015.67 378.098 1016.53 377.648C1016.78 377.518 1017.03 377.408 1017.3 377.328C1017.57 377.238 1017.85 377.208 1018.12 377.178C1018.26 377.158 1018.41 377.158 1018.55 377.178C1018.81 377.208 1019.09 377.228 1019.34 377.328C1019.6 377.398 1019.83 377.538 1020.03 377.728C1020.11 377.828 1020.19 377.938 1020.27 378.038C1020.5 378.388 1020.52 378.838 1020.43 379.238C1020.41 379.318 1020.38 379.398 1020.34 379.468C1020.34 379.638 1020.34 379.808 1020.3 379.948C1020.25 380.148 1020.16 380.328 1020.02 380.478C1019.91 380.648 1019.77 380.778 1019.58 380.878C1019.24 381.018 1018.89 381.158 1018.55 381.288C1018.44 381.338 1018.33 381.398 1018.23 381.448C1018.1 381.588 1017.97 381.728 1017.84 381.858V381.888ZM1021.65 384.168C1021.59 384.358 1021.48 384.528 1021.33 384.668C1021.19 384.818 1021.02 384.928 1020.83 384.988C1020.64 385.088 1020.45 385.128 1020.23 385.118H1019.94C1019.66 385.118 1019.4 385.048 1019.16 384.908C1019.06 384.828 1018.95 384.748 1018.85 384.668C1018.66 384.478 1018.52 384.248 1018.45 383.978L1018.39 383.568C1018.39 383.358 1018.43 383.158 1018.52 382.968C1018.58 382.778 1018.69 382.608 1018.84 382.468C1018.98 382.318 1019.15 382.208 1019.34 382.148C1019.53 382.048 1019.72 382.008 1019.94 382.018H1020.23C1020.51 382.018 1020.77 382.088 1021.01 382.228C1021.11 382.308 1021.22 382.388 1021.32 382.468C1021.51 382.658 1021.65 382.888 1021.72 383.158C1021.74 383.298 1021.76 383.438 1021.78 383.568C1021.78 383.778 1021.74 383.978 1021.65 384.168Z" fill="black"/>
<path d="M1010.1 375.899C1010.02 375.899 1009.95 375.879 1009.87 375.849C1009.62 375.729 1009.53 375.429 1009.65 375.179C1009.68 375.119 1012.86 369.039 1020.56 370.429C1020.83 370.479 1021.01 370.739 1020.96 371.009C1020.91 371.279 1020.64 371.449 1020.38 371.409C1013.4 370.139 1010.57 375.569 1010.54 375.629C1010.45 375.799 1010.28 375.899 1010.09 375.899H1010.1Z" fill="black"/>
<path d="M1071.86 392.939C1071.69 392.939 1071.52 392.899 1071.36 392.799C1070.88 392.519 1070.72 391.909 1071 391.429C1072.89 388.179 1073.38 385.059 1072.46 382.129C1071.16 377.989 1067.35 375.139 1065.17 373.799C1065.29 378.609 1064.06 386.049 1064 386.409C1063.91 386.949 1063.39 387.329 1062.85 387.229C1062.31 387.139 1061.94 386.619 1062.03 386.079C1062.05 385.979 1063.65 376.239 1063.05 372.169C1063 371.809 1063.15 371.439 1063.44 371.219C1063.73 370.999 1064.13 370.959 1064.46 371.109C1064.78 371.259 1072.25 374.789 1074.37 381.519C1075.47 384.999 1074.91 388.679 1072.73 392.429C1072.54 392.749 1072.21 392.929 1071.86 392.929V392.939Z" fill="black"/>
<path d="M976.4 418.262H965.4C959.601 418.262 954.9 422.963 954.9 428.762C954.9 434.561 959.601 439.262 965.4 439.262H976.4C982.199 439.262 986.9 434.561 986.9 428.762C986.9 422.963 982.199 418.262 976.4 418.262Z" fill="#EFDEC6"/>
<path d="M976.4 445.262H965.4C959.601 445.262 954.9 449.963 954.9 455.762C954.9 461.561 959.601 466.262 965.4 466.262H976.4C982.199 466.262 986.9 461.561 986.9 455.762C986.9 449.963 982.199 445.262 976.4 445.262Z" fill="#EFDEC6"/>
<path d="M978.15 466.1C978.15 466.1 1010.05 466.89 1020.48 459.07C1030.91 451.25 995.39 445.25 994.65 445.25C993.91 445.25 978.15 452.62 978.15 452.62V466.09V466.1Z" fill="#EFDEC6"/>
<path d="M1036.88 453.711C1030.48 453.711 1024.6 452.321 1023.55 452.061C1021.41 451.531 1020.1 449.351 1020.64 447.211C1021.17 445.071 1023.34 443.761 1025.49 444.301C1031.01 445.661 1041.32 446.781 1045.5 443.951C1046.49 443.281 1047.01 442.451 1047.18 441.251C1048.16 434.271 1052.56 429.161 1058.94 427.601C1065.15 426.081 1071.87 428.351 1075.29 433.121C1076.58 434.921 1076.16 437.411 1074.37 438.701C1072.58 439.981 1070.08 439.571 1068.79 437.781C1067.28 435.671 1063.87 434.641 1060.85 435.371C1059.01 435.821 1055.81 437.331 1055.1 442.371C1054.62 445.811 1052.84 448.651 1049.97 450.581C1046.41 452.981 1041.51 453.701 1036.88 453.701V453.711Z" fill="#EFDEC6"/>
<path d="M1002.64 403.779C1001.19 403.779 1000.07 403.299 999.33 402.359C997.67 400.259 998.52 396.609 998.56 396.459C998.63 396.189 998.89 396.029 999.16 396.089C999.43 396.149 999.59 396.419 999.53 396.689C999.53 396.719 998.75 400.019 1000.11 401.739C1000.67 402.439 1001.51 402.739 1002.65 402.779C1005.12 402.779 1006.41 401.609 1007.07 400.629C1007.97 399.279 1008.01 397.859 1007.87 397.509C1007.68 397.049 1005.89 396.129 1004.14 395.449L1003.8 399.059C1003.77 399.339 1003.53 399.529 1003.25 399.509C1002.98 399.479 1002.77 399.239 1002.8 398.959L1003.27 394.059L1003.87 394.279C1004.9 394.649 1008.32 395.939 1008.8 397.119C1009.09 397.829 1008.94 399.629 1007.91 401.169C1007.12 402.349 1005.57 403.749 1002.67 403.759H1002.65L1002.64 403.779Z" fill="black"/>
<path d="M971.03 440.561C965.94 440.561 958.77 439.741 956.09 435.461C952.04 429.001 954.6 423.091 958.34 419.721C961.65 416.731 972.68 417.201 973.93 417.261C974.48 417.291 974.91 417.761 974.88 418.311C974.85 418.861 974.38 419.291 973.83 419.261C970.67 419.101 961.97 419.141 959.68 421.201C958.16 422.581 953.52 427.591 957.79 434.401C960.76 439.141 972.15 438.801 976.28 438.271C976.84 438.211 977.33 438.591 977.4 439.131C977.47 439.681 977.08 440.181 976.54 440.251C976.3 440.281 974.02 440.561 971.04 440.561H971.03Z" fill="black"/>
<path d="M974.84 446.261C974.46 446.261 974.09 446.041 973.92 445.671L972.28 441.991C972.06 441.491 972.28 440.891 972.79 440.671C973.3 440.451 973.89 440.671 974.11 441.181L975.75 444.861C975.97 445.361 975.75 445.961 975.24 446.181C975.11 446.241 974.97 446.271 974.83 446.271L974.84 446.261Z" fill="black"/>
<path d="M974.27 467.51C964.48 467.51 960.09 465.9 959.88 465.82C959.68 465.75 954.99 463.9 953.92 455.9C953.04 449.3 959 445.69 962.28 444.71C962.37 444.68 962.45 444.67 962.54 444.67L979.69 444.27C980.2 444.27 980.7 444.69 980.71 445.25C980.72 445.8 980.29 446.26 979.73 446.27L962.73 446.67C961.7 447.01 955.08 449.46 955.9 455.64C956.8 462.38 960.44 463.9 960.59 463.96C960.64 463.98 966.91 466.25 981.14 465.27C995.66 464.28 1002.2 463.77 1002.27 463.77C1002.81 463.72 1003.3 464.14 1003.35 464.69C1003.4 465.24 1002.98 465.72 1002.43 465.77C1002.37 465.77 995.81 466.29 981.28 467.28C978.69 467.46 976.36 467.53 974.27 467.53V467.51Z" fill="black"/>
<path d="M1007.52 464.888C1007.07 464.888 1006.66 464.578 1006.55 464.118C1006.42 463.578 1006.75 463.038 1007.29 462.918C1007.47 462.878 1025.15 458.608 1030.51 452.278C1030.87 451.858 1031.5 451.798 1031.92 452.158C1032.34 452.518 1032.39 453.148 1032.04 453.568C1026.26 460.398 1008.51 464.678 1007.76 464.858C1007.68 464.878 1007.6 464.888 1007.53 464.888H1007.52Z" fill="black"/>
<path d="M1035.09 449.672C1034.88 449.672 1034.68 449.612 1034.5 449.482C1034.05 449.152 1033.96 448.532 1034.28 448.082C1034.38 447.942 1044.62 433.592 1036.5 417.032C1036.26 416.532 1036.46 415.942 1036.96 415.692C1037.46 415.442 1038.06 415.652 1038.3 416.152C1046.97 433.822 1036.01 449.112 1035.9 449.262C1035.7 449.532 1035.4 449.672 1035.09 449.672Z" fill="black"/>
<path d="M1036.83 454.99C1033.27 454.99 1030.65 454.44 1030.58 454.42C1030.04 454.3 1029.7 453.77 1029.82 453.23C1029.94 452.69 1030.47 452.35 1031.01 452.47C1031.17 452.51 1047.45 455.93 1053.02 444.97C1053.5 440.76 1056.15 433.26 1063.01 433.69C1063.71 433.65 1067.57 433.57 1069.71 437.64C1070.09 437.97 1071.42 439 1072.73 438.73C1073.71 438.54 1074.56 437.64 1075.26 436.05C1075.48 435.55 1076.07 435.32 1076.58 435.54C1077.08 435.76 1077.31 436.35 1077.09 436.86C1076.11 439.08 1074.77 440.37 1073.11 440.69C1070.55 441.19 1068.31 439.07 1068.22 438.98C1068.14 438.9 1068.07 438.81 1068.02 438.71C1066.37 435.41 1063.26 435.68 1063.13 435.69C1063.08 435.69 1063.01 435.69 1062.95 435.69C1056.12 435.2 1055.04 444.94 1054.99 445.36C1054.98 445.48 1054.94 445.59 1054.89 445.7C1051.05 453.5 1042.67 454.99 1036.83 454.99Z" fill="black"/>
<path d="M1048.94 437.451C1048.94 437.451 1048.85 437.451 1048.8 437.451C1048.26 437.371 1047.87 436.871 1047.95 436.331C1047.99 436.011 1049.13 428.411 1059.71 426.291C1070.22 424.191 1075.83 431.731 1076.06 432.051C1076.38 432.501 1076.28 433.121 1075.84 433.451C1075.39 433.781 1074.77 433.671 1074.44 433.231C1074.23 432.941 1069.3 426.411 1060.1 428.251C1050.98 430.071 1049.97 436.341 1049.93 436.601C1049.86 437.101 1049.43 437.461 1048.94 437.461V437.451Z" fill="black"/>
<path d="M1040.26 446.582C1039.3 446.582 1038.28 446.472 1037.19 446.242C1036.65 446.132 1036.3 445.602 1036.42 445.062C1036.54 444.522 1037.07 444.182 1037.6 444.292C1040.41 444.882 1042.63 444.602 1044.2 443.442C1046.31 441.892 1046.59 439.202 1046.59 439.182C1046.64 438.632 1047.12 438.232 1047.68 438.282C1048.23 438.332 1048.63 438.812 1048.59 439.362C1048.58 439.512 1048.25 442.942 1045.41 445.042C1044.01 446.072 1042.29 446.592 1040.25 446.592L1040.26 446.582Z" fill="black"/>
<path d="M985.5 438.992C983.32 438.992 981.77 438.792 981.62 438.772C981.07 438.702 980.69 438.191 980.76 437.651C980.84 437.101 981.34 436.731 981.88 436.791C981.96 436.801 990.46 437.902 995.73 434.762C996.2 434.482 996.82 434.632 997.1 435.112C997.38 435.582 997.23 436.201 996.75 436.481C993.25 438.561 988.69 438.992 985.49 438.992H985.5Z" fill="black"/>
</g>
<path d="M282.72 612.549H279.922V586.226H282.72V612.549ZM268.657 588.203C269.966 588.203 271.133 588.584 272.158 589.346C273.184 590.107 273.984 591.182 274.561 592.568C275.137 593.955 275.425 595.571 275.425 597.417C275.425 599.272 275.137 600.894 274.561 602.28C273.984 603.667 273.184 604.741 272.158 605.503C271.133 606.255 269.966 606.631 268.657 606.631C267.349 606.631 266.177 606.255 265.142 605.503C264.116 604.741 263.315 603.667 262.739 602.28C262.163 600.894 261.875 599.272 261.875 597.417C261.875 595.571 262.163 593.955 262.739 592.568C263.315 591.182 264.116 590.107 265.142 589.346C266.177 588.584 267.349 588.203 268.657 588.203ZM268.657 590.693C267.856 590.693 267.144 590.967 266.519 591.514C265.894 592.061 265.41 592.842 265.068 593.857C264.736 594.863 264.57 596.05 264.57 597.417C264.57 598.774 264.736 599.961 265.068 600.977C265.41 601.992 265.894 602.773 266.519 603.32C267.144 603.857 267.856 604.126 268.657 604.126C269.458 604.126 270.166 603.857 270.781 603.32C271.406 602.773 271.89 601.992 272.231 600.977C272.573 599.961 272.744 598.774 272.744 597.417C272.744 596.05 272.573 594.863 272.231 593.857C271.89 592.842 271.411 592.061 270.796 591.514C270.181 590.967 269.468 590.693 268.657 590.693ZM300.679 606.001H288.359V588.76H300.679V606.001ZM291.099 603.774H297.954V590.957H291.099V603.774ZM308.647 612.549H305.85V586.226H308.647V612.549ZM321.948 593.975C321.948 595.859 321.621 597.705 320.967 599.512C320.312 601.309 319.414 602.91 318.271 604.316C317.129 605.713 315.835 606.763 314.39 607.466L312.749 605.283C314.048 604.658 315.225 603.745 316.279 602.544C317.334 601.333 318.159 599.98 318.755 598.486C319.36 596.982 319.663 595.479 319.663 593.975V590.078H321.948V593.975ZM322.476 593.975C322.476 595.42 322.769 596.855 323.354 598.281C323.95 599.707 324.775 600.977 325.83 602.09C326.895 603.203 328.091 604.048 329.419 604.624L327.881 606.807C326.396 606.143 325.073 605.156 323.911 603.848C322.759 602.539 321.86 601.03 321.216 599.321C320.581 597.612 320.264 595.83 320.264 593.975V590.078H322.476V593.975ZM328.481 591.177H313.672V588.892H328.481V591.177ZM334.575 612.476H331.777V586.226H334.575V612.476ZM370.098 609.341H346.074V607.041H370.098V609.341ZM359.39 608.022H356.665V601.621H359.39V608.022ZM367.153 596.289H351.772V601.328H349.004V594.062H364.414V590.371H348.96V588.101H367.153V596.289ZM367.769 602.412H349.004V600.127H367.769V602.412ZM391.499 591.016H374.521V588.76H391.499V591.016ZM395.938 608.931H372.002V606.646H395.938V608.931ZM383.853 607.832H381.113V597.388H383.853V607.832ZM393.242 591.338C393.242 592.891 393.223 594.194 393.184 595.249C393.145 596.294 393.057 597.534 392.92 598.97C392.783 600.396 392.563 601.938 392.261 603.599L389.434 603.291C389.756 601.719 389.99 600.234 390.137 598.838C390.283 597.441 390.371 596.206 390.4 595.132C390.439 594.048 390.459 592.783 390.459 591.338V588.76H393.242V591.338Z" fill="black"/>
<g clip-path="url(#clip1_444_31608)">
<path d="M334.094 441.93H312.623C285.875 441.93 264.192 463.618 264.192 490.373V494.799C264.192 521.553 285.875 543.242 312.623 543.242H334.094C360.842 543.242 382.525 521.553 382.525 494.799V490.373C382.525 463.618 360.842 441.93 334.094 441.93Z" fill="#EFDEC6"/>
<path d="M413.394 449.75C432.811 449.75 448.551 434.006 448.551 414.584C448.551 395.162 432.811 379.418 413.394 379.418C393.978 379.418 378.237 395.162 378.237 414.584C378.237 434.006 393.978 449.75 413.394 449.75Z" fill="#EFDEC6"/>
<path d="M226.463 449.75C245.88 449.75 261.62 434.006 261.62 414.584C261.62 395.162 245.88 379.418 226.463 379.418C207.047 379.418 191.307 395.162 191.307 414.584C191.307 434.006 207.047 449.75 226.463 449.75Z" fill="#EFDEC6"/>
<path d="M226.464 438.602C239.724 438.602 250.473 427.85 250.473 414.586C250.473 401.323 239.724 390.57 226.464 390.57C213.204 390.57 202.454 401.323 202.454 414.586C202.454 427.85 213.204 438.602 226.464 438.602Z" fill="#FFF4EB"/>
<path d="M415.109 438.602C428.369 438.602 439.119 427.85 439.119 414.586C439.119 401.323 428.369 390.57 415.109 390.57C401.849 390.57 391.1 401.323 391.1 414.586C391.1 427.85 401.849 438.602 415.109 438.602Z" fill="#FFF4EB"/>
<path d="M350.369 324.527H294.633C254.616 324.527 222.176 356.976 222.176 397.004V400.434C222.176 440.462 254.616 472.911 294.633 472.911H350.369C390.386 472.911 422.827 440.462 422.827 400.434V397.004C422.827 356.976 390.386 324.527 350.369 324.527Z" fill="#EFDEC6"/>
<path d="M340.869 469.41H304.134C270.212 469.41 242.464 444.726 242.464 414.569C242.464 384.412 262.477 357.977 304.134 359.727C319.929 360.396 322.501 373.416 322.501 373.416C322.501 373.416 326.772 359.744 340.869 359.727C385.955 359.692 402.539 384.412 402.539 414.569C402.539 444.726 374.791 469.41 340.869 469.41Z" fill="#FFF4EB"/>
<path opacity="0.42" d="M269.337 444.604C281.177 444.604 290.774 435.004 290.774 423.161C290.774 411.319 281.177 401.719 269.337 401.719C257.498 401.719 247.9 411.319 247.9 423.161C247.9 435.004 257.498 444.604 269.337 444.604Z" fill="url(#paint2_radial_444_31608)"/>
<path opacity="0.42" d="M377.437 444.604C389.276 444.604 398.874 435.004 398.874 423.161C398.874 411.319 389.276 401.719 377.437 401.719C365.598 401.719 356 411.319 356 423.161C356 435.004 365.598 444.604 377.437 444.604Z" fill="url(#paint3_radial_444_31608)"/>
<path d="M293.346 412.869C298.082 412.869 301.921 409.029 301.921 404.292C301.921 399.555 298.082 395.715 293.346 395.715C288.611 395.715 284.771 399.555 284.771 404.292C284.771 409.029 288.611 412.869 293.346 412.869Z" fill="white"/>
<path d="M293.346 394C287.67 394 283.057 398.614 283.057 404.292C283.057 409.971 287.67 414.585 293.346 414.585C299.023 414.585 303.636 409.971 303.636 404.292C303.636 398.614 299.023 394 293.346 394ZM291.443 404.824C291.151 405.116 290.808 405.39 290.465 405.613C290.208 405.785 289.899 405.888 289.608 405.991C289.505 406.025 289.419 406.059 289.316 406.077C288.836 406.197 288.373 406.197 287.893 406.077C287.687 405.991 287.464 405.905 287.258 405.802C286.641 405.476 286.264 404.841 286.041 404.207C285.989 404.069 285.955 403.915 285.921 403.761C285.869 403.418 285.801 403.057 285.801 402.714C285.801 402.354 285.869 401.994 285.921 401.651C285.938 401.514 285.972 401.376 286.024 401.256C286.555 399.678 287.721 398.323 289.196 397.551C289.625 397.328 290.054 397.139 290.517 397.002C290.98 396.848 291.46 396.796 291.923 396.745C292.163 396.71 292.42 396.71 292.66 396.745C293.106 396.796 293.587 396.83 294.015 397.002C294.461 397.122 294.856 397.362 295.199 397.688C295.336 397.86 295.473 398.048 295.61 398.22C296.005 398.82 296.039 399.592 295.885 400.278C295.85 400.416 295.799 400.553 295.73 400.673C295.73 400.965 295.73 401.256 295.662 401.496C295.576 401.839 295.422 402.148 295.181 402.406C294.993 402.697 294.753 402.92 294.427 403.092C293.844 403.332 293.244 403.572 292.66 403.795C292.472 403.881 292.283 403.984 292.112 404.069C291.889 404.31 291.666 404.55 291.443 404.773V404.824ZM297.977 408.735C297.874 409.061 297.685 409.353 297.428 409.593C297.188 409.85 296.896 410.039 296.571 410.142C296.245 410.314 295.919 410.382 295.542 410.365H295.044C294.564 410.365 294.118 410.245 293.707 410.005C293.535 409.868 293.346 409.73 293.175 409.593C292.849 409.267 292.609 408.873 292.489 408.409L292.386 407.706C292.386 407.346 292.455 407.003 292.609 406.677C292.712 406.351 292.901 406.059 293.158 405.819C293.398 405.562 293.689 405.373 294.015 405.27C294.341 405.099 294.667 405.03 295.044 405.047H295.542C296.022 405.047 296.468 405.167 296.879 405.408C297.051 405.545 297.239 405.682 297.411 405.819C297.737 406.145 297.977 406.54 298.097 407.003C298.131 407.243 298.165 407.483 298.2 407.706C298.2 408.066 298.131 408.409 297.977 408.735Z" fill="black"/>
<path d="M353.371 412.869C358.106 412.869 361.946 409.029 361.946 404.292C361.946 399.555 358.106 395.715 353.371 395.715C348.635 395.715 344.796 399.555 344.796 404.292C344.796 409.029 348.635 412.869 353.371 412.869Z" fill="white"/>
<path d="M353.371 394C347.694 394 343.081 398.614 343.081 404.292C343.081 409.971 347.694 414.585 353.371 414.585C359.047 414.585 363.661 409.971 363.661 404.292C363.661 398.614 359.047 394 353.371 394ZM351.433 405.733C351.159 405.854 350.884 405.974 350.593 406.042C349.907 406.214 349.512 406.162 348.826 406.077C348.38 405.956 347.986 405.716 347.643 405.39C347.317 405.064 347.077 404.67 346.957 404.207C346.785 403.246 346.768 402.337 347.043 401.393C347.3 400.467 347.746 399.678 348.363 398.958C348.86 398.374 349.581 397.894 350.335 397.654C350.781 397.328 351.347 397.139 351.879 397.139C353.251 397.139 354.588 397.191 355.943 397.397C356.612 397.499 357.178 398.083 357.538 398.614C357.864 399.129 358.036 400.09 357.813 400.673C357.607 401.239 357.367 401.651 356.938 402.08C356.801 402.217 356.646 402.354 356.475 402.491C355.429 403.349 354.314 404.155 353.131 404.841C352.582 405.167 352.016 405.459 351.416 405.716L351.433 405.733ZM355.909 410.708C352.479 410.708 352.479 405.373 355.909 405.373C359.339 405.373 359.339 410.708 355.909 410.708Z" fill="black"/>
<path d="M339.617 440.729C336.547 440.729 333.391 439.991 330.133 439.202C327.235 438.516 324.251 437.813 321.249 437.641C315.264 437.332 310.051 437.778 305.849 438.121C301.407 438.499 298.475 438.756 296.605 437.967C294.822 437.212 293.57 435.96 292.97 434.347C291.855 431.328 293.398 428.12 293.57 427.777L296.64 429.304C296.348 429.904 295.679 431.791 296.194 433.164C296.468 433.884 297.034 434.416 297.943 434.793C299.023 435.257 302.196 434.982 305.557 434.69C309.862 434.33 315.213 433.867 321.421 434.193C324.714 434.365 327.869 435.119 330.905 435.84C335.278 436.886 339.411 437.864 343.047 436.8C346.116 435.943 350.884 434.039 351.93 432.478L354.794 434.365C352.685 437.555 345.43 439.699 343.99 440.094C342.549 440.523 341.092 440.677 339.617 440.677V440.729Z" fill="black"/>
<path d="M355.669 297.404C355.669 297.404 357.881 288.21 357.264 285.842C356.646 283.475 365.341 281.743 367.999 288.158C370.657 294.574 360.814 301.659 360.814 301.659C360.814 301.659 362.323 335.246 310.702 327.699C310.702 327.699 280.262 317.749 283.023 300.818C283.023 300.818 285.732 295.552 292.541 298.382C299.349 301.213 316.67 309.429 326.188 306.994C335.706 304.558 350.524 293.15 355.669 297.404Z" fill="#FEDA00"/>
<path d="M258.602 425.992C259.785 423.83 261.225 421.892 262.94 420.125C263.266 419.799 263.266 419.25 262.94 418.907C262.615 418.564 262.049 418.581 261.723 418.907C259.922 420.76 258.361 422.853 257.11 425.117C256.887 425.529 257.007 426.06 257.418 426.283C257.83 426.506 258.361 426.386 258.584 425.975L258.602 425.992Z" fill="#FFA8B8"/>
<path d="M264.724 427.726L271.686 421.928C272.047 421.636 271.995 421.019 271.686 420.71C271.326 420.35 270.829 420.418 270.469 420.71L263.506 426.508C263.146 426.8 263.197 427.417 263.506 427.726C263.866 428.086 264.364 428.018 264.724 427.726Z" fill="#FFA8B8"/>
<path d="M273.453 428.859C274.207 427.984 275.031 427.177 275.922 426.423C276.368 426.045 276.677 425.805 277.157 425.462C277.637 425.119 278.135 424.793 278.649 424.484C279.026 424.244 279.215 423.712 278.958 423.318C278.701 422.923 278.203 422.769 277.792 423.009C275.734 424.261 273.847 425.822 272.269 427.641C271.978 427.984 271.909 428.533 272.269 428.859C272.595 429.15 273.161 429.219 273.487 428.859H273.453Z" fill="#FFA8B8"/>
<path d="M368.84 422.338C367.588 423.984 366.336 425.631 365.084 427.295C364.81 427.655 365.015 428.273 365.393 428.462C365.839 428.702 366.267 428.53 366.559 428.153C367.811 426.506 369.063 424.859 370.315 423.195C370.589 422.835 370.383 422.217 370.006 422.029C369.56 421.789 369.131 421.96 368.84 422.338Z" fill="#FFA8B8"/>
<path d="M376.317 421.773C375.562 424.02 374.276 426.096 372.561 427.76C371.772 428.532 372.99 429.75 373.779 428.978C375.7 427.091 377.123 424.775 377.963 422.236C378.101 421.79 377.792 421.293 377.363 421.173C376.9 421.053 376.454 421.327 376.3 421.773H376.317Z" fill="#FFA8B8"/>
<path d="M383.554 422.166C383.074 424.156 382.182 426.043 380.947 427.621C380.656 427.981 380.587 428.479 380.947 428.839C381.239 429.13 381.873 429.199 382.165 428.839C383.605 427.003 384.652 424.893 385.217 422.629C385.32 422.183 385.08 421.703 384.617 421.565C384.154 421.428 383.674 421.72 383.554 422.166Z" fill="#FFA8B8"/>
<path d="M225.314 377.668C225.16 377.668 224.988 377.651 224.817 377.599C223.908 377.325 223.393 376.381 223.668 375.472C223.839 374.923 240.697 320.202 299.983 322.809C300.927 322.843 301.664 323.65 301.63 324.593C301.596 325.537 300.79 326.308 299.846 326.24C243.304 323.787 227.612 374.289 226.977 376.45C226.754 377.188 226.069 377.685 225.331 377.685L225.314 377.668Z" fill="black"/>
<path d="M266.267 468.81C266.061 468.81 265.856 468.776 265.65 468.69C241.657 459.307 230.287 437.281 229.807 436.355C229.378 435.514 229.721 434.485 230.562 434.056C231.402 433.627 232.431 433.97 232.86 434.811C232.963 435.034 244.161 456.614 266.902 465.517C267.776 465.86 268.222 466.855 267.879 467.747C267.622 468.416 266.97 468.845 266.284 468.845L266.267 468.81Z" fill="black"/>
<path d="M264.347 500.354C263.455 500.354 262.701 499.668 262.632 498.776C261.054 477.831 267.811 467.83 268.103 467.418C268.652 466.646 269.715 466.457 270.487 466.989C271.258 467.538 271.447 468.602 270.915 469.374C270.812 469.528 264.57 478.963 266.045 498.518C266.113 499.462 265.41 500.285 264.467 500.354C264.416 500.354 264.381 500.354 264.33 500.354H264.347Z" fill="black"/>
<path d="M226.875 451.585C219.741 451.585 214.064 449.337 213.738 449.2C213.395 449.063 183.366 435.837 190.312 407.293C197.223 378.885 224.028 377.702 224.302 377.702C225.246 377.616 226.035 378.405 226.069 379.366C226.103 380.309 225.366 381.098 224.422 381.133C223.428 381.167 199.933 382.282 193.656 408.116C187.396 433.864 214.784 445.924 215.076 446.044C215.144 446.061 225.177 450.024 234.626 447.039C235.535 446.764 236.496 447.262 236.77 448.154C237.062 449.063 236.547 450.024 235.655 450.298C232.671 451.242 229.67 451.585 226.892 451.585H226.875Z" fill="black"/>
<path d="M223.565 416.248C222.741 416.248 222.004 415.647 221.867 414.789C221.798 414.343 220.306 404.514 220.632 393.055C216.911 394.084 209.022 397.309 205.575 406.778C205.249 407.67 204.271 408.134 203.379 407.808C202.488 407.482 202.025 406.504 202.35 405.612C207.598 391.237 221.61 389.316 222.21 389.23C222.724 389.161 223.222 389.333 223.582 389.676C223.959 390.019 224.148 390.516 224.131 391.014C223.547 403.056 225.228 414.172 225.245 414.292C225.382 415.235 224.748 416.11 223.805 416.248C223.719 416.248 223.633 416.265 223.547 416.265L223.565 416.248Z" fill="black"/>
<path d="M419.209 376.193C418.505 376.193 417.854 375.764 417.596 375.078C400.018 328.024 355.446 326.411 355 326.411C354.057 326.394 353.302 325.605 353.32 324.662C353.337 323.718 354.177 323.032 355.069 322.98C355.532 322.98 402.402 324.679 420.803 373.877C421.129 374.769 420.683 375.747 419.792 376.09C419.586 376.158 419.397 376.193 419.191 376.193H419.209Z" fill="black"/>
<path d="M382.525 467.041C381.77 467.041 381.084 466.544 380.878 465.789C380.621 464.88 381.153 463.936 382.062 463.662C390.071 461.38 403.018 447.537 403.156 447.4C403.567 446.954 404.168 446.765 404.751 446.885C435.003 453.043 443.783 428.805 444.143 427.775C447.522 416.951 447.076 407.413 442.789 399.454C435.74 386.382 420.528 381.888 420.391 381.837C419.482 381.579 418.951 380.619 419.208 379.709C419.465 378.8 420.425 378.268 421.317 378.526C422.003 378.714 438.038 383.432 445.79 397.773C450.54 406.573 451.089 417.02 447.402 428.822C447.299 429.148 437.524 456.474 405.008 450.402C402.161 453.369 390.911 464.674 383.005 466.921C382.851 466.973 382.696 466.99 382.542 466.99L382.525 467.041Z" fill="black"/>
<path d="M382.473 498.879C382.473 498.879 382.37 498.879 382.319 498.879C381.376 498.793 380.672 497.969 380.758 497.026C380.758 496.82 382.37 477.264 375.236 469.133C374.619 468.413 374.687 467.332 375.39 466.715C376.111 466.097 377.191 466.166 377.808 466.869C385.92 476.115 384.24 496.46 384.171 497.318C384.085 498.21 383.348 498.879 382.456 498.879H382.473Z" fill="black"/>
<path d="M421.026 418.22C420.94 418.22 420.855 418.22 420.769 418.203C419.826 418.066 419.191 417.191 419.328 416.247C419.345 416.093 421.575 401.375 420.94 391.905C420.906 391.339 421.146 390.79 421.592 390.43C422.038 390.087 422.638 389.984 423.17 390.156C423.821 390.362 438.999 395.422 440.834 410.518C440.954 411.461 440.285 412.319 439.342 412.422C438.416 412.542 437.541 411.873 437.438 410.929C436.272 401.323 428.486 396.366 424.49 394.427C424.662 404.051 422.827 416.23 422.741 416.779C422.604 417.619 421.883 418.237 421.043 418.237L421.026 418.22Z" fill="black"/>
<path d="M331.539 472.001C323.667 472.001 318.059 471.28 316.962 471.143C263.009 474.419 247.574 440.042 247.42 439.699C247.042 438.824 247.454 437.83 248.312 437.452C249.169 437.075 250.181 437.469 250.558 438.344C250.695 438.67 265.358 470.937 316.91 467.712C317.03 467.712 317.15 467.712 317.27 467.712C317.87 467.798 377.911 476.529 395.353 436.629C395.73 435.754 396.742 435.359 397.616 435.737C398.491 436.114 398.885 437.126 398.508 438.001C385.629 467.455 351.381 471.983 331.539 471.983V472.001Z" fill="black"/>
<path d="M245.791 434.002C245.088 434.002 244.436 433.573 244.179 432.887C243.167 430.125 234.678 405.217 250.661 380.927C264.364 360.085 292.061 358.267 294.136 358.164C295.782 357.924 315.075 355.522 321.438 366.947L322.553 369.382C325.622 364.202 333.511 355.522 350.901 358.455C372.407 362.092 377.929 365.283 379.318 366.604C382.491 368.473 414.681 388.835 401.321 432.252C401.047 433.162 400.086 433.659 399.177 433.385C398.268 433.11 397.771 432.149 398.045 431.24C411.182 388.561 378.803 370.223 377.432 369.468C377.243 369.365 377.089 369.228 376.951 369.074C376.66 368.799 372.801 365.626 350.335 361.835C329.241 358.284 324.371 373.276 324.165 373.928C323.959 374.614 323.342 375.095 322.638 375.146C321.918 375.215 321.266 374.803 320.958 374.151L318.385 368.508C313.103 359.004 294.736 361.56 294.564 361.577C294.119 361.612 266.508 363.104 253.542 382.831C238.502 405.698 246.46 429.113 247.42 431.721C247.746 432.613 247.3 433.59 246.408 433.934C246.22 434.002 246.014 434.036 245.808 434.036L245.791 434.002Z" fill="black"/>
<path d="M342.224 438.361L338.382 437.332L335.655 430.368L337.182 425.993L341.623 423.746L348.552 425.324L349.941 428.309V434.622L346.099 437.332L342.224 438.361Z" fill="#FFA8B8"/>
<path d="M339.942 440.332C339.668 440.332 339.513 440.332 339.445 440.315L338.862 440.246L338.45 439.834C338.45 439.834 336.512 437.879 334.694 434.242C333.357 431.566 333.854 427.621 335.895 424.876C337.112 423.229 339.925 420.605 345.104 421.497C347.985 421.994 350.146 423.332 351.518 425.476C354.176 429.645 352.684 435.323 352.616 435.563L351.741 435.323L352.376 436.764C344.984 439.989 341.263 440.349 339.976 440.349L339.942 440.332ZM343.115 424.739C340.782 424.739 339.411 425.871 338.639 426.9C337.233 428.804 337.078 431.343 337.747 432.698C338.793 434.791 339.839 436.198 340.405 436.884C341.503 436.798 344.298 436.352 349.34 434.294C349.563 433.179 350.112 429.696 348.568 427.295C347.728 425.991 346.39 425.202 344.487 424.859C343.989 424.773 343.526 424.739 343.098 424.739H343.115Z" fill="black"/>
<path d="M346.511 438.173C346.048 438.173 345.585 437.916 345.362 437.47L341.64 430.042C341.315 429.408 341.572 428.636 342.206 428.31C342.841 428.001 343.613 428.241 343.938 428.876L347.66 436.304C347.986 436.938 347.729 437.71 347.094 438.036C346.905 438.122 346.717 438.173 346.511 438.173Z" fill="black"/>
<path d="M286.676 472.461C286.676 472.461 324.148 477.161 360.196 472.461C360.196 472.461 336.221 497.386 327.646 497.163C319.071 496.94 286.676 472.461 286.676 472.461Z" fill="white"/>
<path d="M294.719 473.27C294.719 473.27 322.501 490.063 324.216 490.063C325.931 490.063 327.646 493.494 334.506 488.348C341.366 483.202 351.227 473.595 351.227 473.595L326.926 474.419L294.736 473.27H294.719Z" fill="#FEE283"/>
<path d="M316.773 475.603C290.62 475.603 283.795 471.297 283.452 471.057C283.057 470.8 282.954 470.268 283.211 469.873C283.469 469.479 284 469.376 284.395 469.633C284.549 469.736 295.371 476.272 340.457 472.927C340.937 472.893 341.349 473.253 341.383 473.716C341.417 474.179 341.057 474.608 340.594 474.642C331.282 475.329 323.41 475.603 316.79 475.603H316.773Z" fill="black"/>
<path d="M328.846 497.849C327.663 497.849 326.119 497.678 324.096 497.198C318.076 495.757 291.409 476.99 290.277 476.201C289.882 475.926 289.797 475.395 290.071 475C290.345 474.606 290.877 474.52 291.271 474.794C300.772 481.484 319.928 494.436 324.49 495.534C329.652 496.769 331.093 495.74 331.11 495.722C331.419 495.516 351.93 482.411 359.493 471.964C359.767 471.569 360.299 471.501 360.693 471.775C361.07 472.05 361.156 472.581 360.882 472.976C353.233 483.526 333.58 496.168 332.173 497.06C331.865 497.318 330.939 497.867 328.829 497.867L328.846 497.849Z" fill="black"/>
<path d="M285.235 302.688C285.235 302.688 298.955 311.265 302.384 312.981C305.814 314.696 333.254 323.273 345.259 312.981C357.263 302.688 357.263 300.973 357.263 300.973C357.263 300.973 365.838 290.68 364.123 287.25C362.408 283.819 367.553 288.965 367.553 288.965L365.838 297.542L360.693 302.688L360.865 308.435C360.865 308.435 358.258 328.042 334.609 329.089C310.959 330.135 301.939 325.761 301.939 325.761C301.939 325.761 280.09 311.265 281.805 304.404C283.52 297.542 285.235 302.688 285.235 302.688Z" fill="#F6A800"/>
<path d="M295.285 321.986C294.942 321.986 294.599 321.883 294.308 321.677C293.81 321.334 282.183 313.1 281.222 304.797C280.931 302.258 281.617 299.977 283.263 298.004C283.538 297.369 284.086 296.683 285.03 296.22C288.322 294.573 294.668 296.289 304.443 301.469C321.181 310.338 330.836 303.631 331.231 303.339C332.62 302.241 345.534 292.395 353.851 294.865C354.76 295.139 355.275 296.083 355 296.992C354.726 297.901 353.765 298.416 352.874 298.141C347.249 296.46 336.822 303.305 333.289 306.067C332.774 306.444 321.576 314.421 302.831 304.488C289.66 297.507 286.676 299.171 286.402 299.359C286.333 299.599 286.213 299.805 286.042 299.994C284.893 301.281 284.429 302.721 284.618 304.385C285.27 310.029 293.244 316.736 296.263 318.846C297.034 319.395 297.223 320.459 296.691 321.231C296.366 321.711 295.834 321.968 295.285 321.968V321.986Z" fill="black"/>
<path d="M323.839 330.186C314.458 330.186 306.655 328.574 305.163 327.322C304.443 326.721 304.34 325.64 304.94 324.903C305.54 324.182 306.621 324.079 307.358 324.68C309.468 325.915 330.579 329.363 345.516 322.947C360.11 316.669 359.15 302.397 359.099 301.796C359.047 301.144 359.356 300.527 359.922 300.184C365.444 296.821 366.233 292.207 366.284 288.124C366.284 288.021 366.01 287.438 364.724 286.735C362.563 285.551 359.922 285.26 358.961 285.5C360.282 290.303 357.641 296.564 357.521 296.839C357.144 297.713 356.149 298.108 355.274 297.748C354.4 297.37 354.005 296.375 354.365 295.501C355.034 293.94 356.543 289.274 355.617 286.34C355.206 285.054 355.514 283.836 356.44 283.012C358.567 281.143 363.077 282.189 365.598 283.338C368.274 284.573 369.731 286.272 369.714 288.159C369.663 292.687 368.771 298.365 362.546 302.568C362.511 306.445 361.328 319.877 346.871 326.086C339.771 329.14 331.299 330.152 323.839 330.152V330.186Z" fill="black"/>
<path d="M277.758 545.746L282.2 555.61L311.869 558.715C311.869 558.715 348.261 557.463 349.101 558.08C349.941 558.698 362.701 556.622 362.701 556.622L367.897 555.61L372.219 546.69C372.219 546.69 339.634 544.974 332.774 543.259C325.915 541.544 288.185 539.828 288.185 539.828L277.741 545.746H277.758Z" fill="#B8B8B8"/>
<path d="M262.015 506.29C262.015 506.29 289.917 501.693 316.499 500.989C343.081 500.286 379.815 505.003 382.028 505.226C384.24 505.449 401.115 511.179 401.115 511.179L411.388 519.413L414.664 526.034L414.286 531.575L407.975 538.626L393.535 544.595L376.454 549.278L342.515 553.55L306.895 553.224L273.128 549.587L254.76 545.676L235.776 536.018L230.905 528.59L230.391 520.734L238.177 514.335L252.188 508.657L262.015 506.324V506.29Z" fill="#E3E3E3"/>
<path d="M328.298 555.129C298.218 555.129 273.299 550.91 272.905 550.841C271.241 550.652 230.374 545.832 229.139 525.83C228.95 522.811 229.996 519.998 232.26 517.459C243.665 504.576 283.315 502.089 284.995 501.986C285.715 501.952 286.316 502.483 286.35 503.187C286.384 503.89 285.853 504.508 285.15 504.542C284.755 504.559 244.882 507.064 234.198 519.157C232.38 521.199 231.574 523.326 231.728 525.676C232.843 543.55 272.888 548.268 273.299 548.302C274.002 548.422 336.736 559.041 383.074 546.329C383.76 546.158 384.463 546.552 384.652 547.239C384.84 547.925 384.429 548.628 383.76 548.817C366.199 553.637 346.339 555.147 328.332 555.147L328.298 555.129Z" fill="black"/>
<path d="M388.407 547.033C387.79 547.033 387.241 546.587 387.138 545.952C387.018 545.249 387.498 544.597 388.201 544.477C388.424 544.442 409.776 540.737 413.171 530.873C414.475 527.099 412.88 522.725 408.455 517.888C389.093 496.737 296.091 503.238 295.164 503.307C294.478 503.341 293.844 502.826 293.793 502.123C293.741 501.42 294.273 500.802 294.976 500.751C298.852 500.476 390.156 494.095 410.359 516.155C415.469 521.747 417.253 526.979 415.606 531.714C411.713 543.019 389.573 546.861 388.63 547.015C388.561 547.015 388.493 547.033 388.424 547.033H388.407Z" fill="black"/>
<path d="M329.138 560.001C325.331 560.001 322.81 559.932 322.467 559.932C321.764 559.915 321.198 559.315 321.215 558.612C321.232 557.908 321.781 557.394 322.536 557.359C322.827 557.359 351.176 558.08 367.228 554.443L369.526 551.904C370.006 551.372 370.812 551.338 371.344 551.818C371.875 552.299 371.91 553.105 371.429 553.637L368.857 556.467C368.685 556.656 368.445 556.793 368.205 556.862C356.543 559.589 338.742 560.001 329.138 560.001Z" fill="black"/>
<path d="M320.976 560.001C311.372 560.001 293.588 559.589 281.909 556.862C281.651 556.793 281.429 556.673 281.257 556.467L278.685 553.637C278.204 553.105 278.239 552.299 278.77 551.818C279.302 551.338 280.108 551.372 280.588 551.904L282.886 554.443C298.938 558.08 327.287 557.359 327.578 557.359C328.333 557.376 328.882 557.908 328.899 558.612C328.916 559.315 328.367 559.915 327.647 559.932C327.304 559.932 324.783 560.001 320.976 560.001Z" fill="black"/>
<path d="M252.857 531.199C252.857 531.199 241.521 528.06 252.857 518.471C264.192 508.882 308.782 505.451 337.936 507.166C337.936 507.166 251.81 508.916 252.857 531.199Z" fill="#B8B8B8"/>
<path d="M153.577 303.941H139.857V554.392H153.577V303.941Z" fill="#FFA8B8"/>
<path d="M153.577 303.941L187.019 330.53V538.25L153.577 554.392V303.941Z" fill="#FF8AA3"/>
<path d="M187.019 399.574C186.539 399.574 186.162 399.197 186.162 398.716V330.94L153.286 304.797H139.857C139.377 304.797 139 304.42 139 303.94C139 303.459 139.377 303.082 139.857 303.082H153.577C153.766 303.082 153.954 303.151 154.109 303.271L187.551 329.86C187.756 330.014 187.876 330.271 187.876 330.529V398.716C187.876 399.197 187.499 399.574 187.019 399.574Z" fill="black"/>
<path d="M156.955 553.62C156.629 553.62 156.338 553.449 156.183 553.14C155.978 552.711 156.149 552.196 156.578 551.991L186.161 537.701V432.272C186.161 431.791 186.538 431.414 187.019 431.414C187.499 431.414 187.876 431.791 187.876 432.272V538.233C187.876 538.559 187.687 538.868 187.396 539.005L157.333 553.517C157.212 553.569 157.092 553.603 156.955 553.603V553.62Z" fill="black"/>
<path d="M153.577 555.248H139.857C139.377 555.248 139 554.871 139 554.391V308.229C139 307.748 139.377 307.371 139.857 307.371C140.338 307.371 140.715 307.748 140.715 308.229V553.55H153.577C154.057 553.55 154.435 553.928 154.435 554.408C154.435 554.888 154.057 555.266 153.577 555.266V555.248Z" fill="black"/>
<path d="M153.577 474.126C153.097 474.126 152.72 473.749 152.72 473.269V308.229C152.72 307.748 153.097 307.371 153.577 307.371C154.057 307.371 154.435 307.748 154.435 308.229V473.286C154.435 473.766 154.057 474.144 153.577 474.144V474.126Z" fill="black"/>
<path d="M153.577 550.119C153.097 550.119 152.72 549.742 152.72 549.262V482.241C152.72 481.76 153.097 481.383 153.577 481.383C154.057 481.383 154.435 481.76 154.435 482.241V549.262C154.435 549.742 154.057 550.119 153.577 550.119Z" fill="black"/>
<path d="M485.422 554.406H499.142L499.142 303.956H485.422L485.422 554.406Z" fill="#FFA8B8"/>
<path d="M485.422 303.941L451.98 330.53V538.25L485.422 554.392V303.941Z" fill="#FF8AA3"/>
<path d="M451.981 399.574C451.5 399.574 451.123 399.197 451.123 398.716V330.529C451.123 330.271 451.243 330.014 451.449 329.86L484.891 303.271C485.045 303.151 485.234 303.082 485.422 303.082H499.142C499.622 303.082 500 303.459 500 303.94C500 304.42 499.622 304.797 499.142 304.797H485.714L452.838 330.94V398.716C452.838 399.197 452.461 399.574 451.981 399.574Z" fill="black"/>
<path d="M482.044 553.619C481.924 553.619 481.787 553.584 481.667 553.533L451.603 539.02C451.312 538.883 451.123 538.574 451.123 538.249V432.287C451.123 431.807 451.5 431.43 451.981 431.43C452.461 431.43 452.838 431.807 452.838 432.287V537.717L482.421 552.006C482.85 552.212 483.021 552.727 482.816 553.155C482.661 553.464 482.37 553.636 482.044 553.636V553.619Z" fill="black"/>
<path d="M499.142 555.248H485.422C484.942 555.248 484.564 554.871 484.564 554.391C484.564 553.91 484.942 553.533 485.422 553.533H498.284V308.229C498.284 307.748 498.661 307.371 499.142 307.371C499.622 307.371 499.999 307.748 499.999 308.229V554.408C499.999 554.888 499.622 555.266 499.142 555.266V555.248Z" fill="black"/>
<path d="M485.422 474.126C484.942 474.126 484.564 473.749 484.564 473.269V308.229C484.564 307.748 484.942 307.371 485.422 307.371C485.902 307.371 486.279 307.748 486.279 308.229V473.286C486.279 473.766 485.902 474.144 485.422 474.144V474.126Z" fill="black"/>
<path d="M485.422 550.119C484.942 550.119 484.564 549.742 484.564 549.262V482.241C484.564 481.76 484.942 481.383 485.422 481.383C485.902 481.383 486.279 481.76 486.279 482.241V549.262C486.279 549.742 485.902 550.119 485.422 550.119Z" fill="black"/>
<path d="M252.856 532.057C252.856 532.057 252.685 532.057 252.599 532.023C252.393 531.954 247.54 530.376 247.06 526.551C246.631 523.137 249.907 519.26 256.801 515.04C274.911 503.907 335.415 506.223 337.97 506.326C338.45 506.343 338.81 506.738 338.793 507.218C338.776 507.681 338.364 508.059 337.901 508.041C337.284 508.024 275.357 505.657 257.692 516.516C249.907 521.302 248.535 524.509 248.758 526.362C249.083 529.107 253.079 530.393 253.114 530.41C253.559 530.548 253.817 531.028 253.679 531.491C253.559 531.851 253.234 532.091 252.856 532.091V532.057Z" fill="black"/>
<path d="M327.611 543.309C327.148 543.309 326.771 542.932 326.754 542.469C326.754 541.988 327.114 541.594 327.594 541.594C345.361 541.148 392.488 538.214 397.222 530.049C398.405 528.008 398.594 526.207 397.839 524.543C395.49 519.465 385.063 517.509 384.96 517.492C384.497 517.407 384.188 516.961 384.274 516.497C384.36 516.034 384.805 515.725 385.268 515.811C385.732 515.897 396.69 517.955 399.4 523.822C400.412 526.001 400.172 528.368 398.714 530.89C392.54 541.56 330.287 543.224 327.646 543.292H327.629L327.611 543.309Z" fill="black"/>
<path d="M292.095 509.329C284.292 509.329 278.306 508.214 274.293 506.018C270.023 503.685 267.862 500.168 267.862 495.588C267.862 491.008 270.023 487.44 274.293 485.124C278.306 482.946 284.292 481.848 292.095 481.848C299.898 481.848 305.883 482.963 309.896 485.158C314.166 487.491 316.327 491.008 316.327 495.588C316.327 500.168 314.166 503.685 309.896 506.018C305.883 508.214 299.898 509.329 292.095 509.329ZM292.095 494.096C289.196 494.096 287.79 494.422 287.139 494.679C286.264 495.039 286.264 495.399 286.264 495.588C286.264 495.777 286.264 496.137 287.139 496.497C287.807 496.772 289.196 497.081 292.095 497.081C294.993 497.081 296.399 496.755 297.051 496.497C297.943 496.137 297.943 495.777 297.943 495.588C297.943 495.399 297.943 495.039 297.068 494.679C296.399 494.404 295.01 494.096 292.112 494.096H292.095Z" fill="#FEDA00"/>
<path d="M292.095 483.136C299.709 483.136 305.437 484.182 309.279 486.292C313.12 488.385 315.041 491.49 315.041 495.59C315.041 499.689 313.12 502.794 309.279 504.887C305.437 506.98 299.709 508.043 292.095 508.043C284.48 508.043 278.752 506.997 274.911 504.887C271.069 502.794 269.149 499.689 269.149 495.59C269.149 491.49 271.069 488.35 274.911 486.258C278.752 484.182 284.48 483.136 292.095 483.136ZM292.095 498.368C294.599 498.368 296.417 498.145 297.531 497.682C298.663 497.219 299.212 496.533 299.212 495.59C299.212 494.646 298.646 493.943 297.531 493.497C296.417 493.034 294.599 492.811 292.095 492.811C289.591 492.811 287.773 493.034 286.658 493.497C285.544 493.96 284.978 494.646 284.978 495.59C284.978 496.533 285.544 497.236 286.658 497.682C287.79 498.145 289.591 498.368 292.095 498.368ZM292.095 480.562C283.966 480.562 277.946 481.695 273.676 483.993C269.029 486.515 266.576 490.529 266.576 495.59C266.576 500.65 269.029 504.613 273.676 507.151C277.929 509.484 283.966 510.617 292.095 510.617C300.224 510.617 306.243 509.484 310.514 507.151C315.161 504.613 317.614 500.616 317.614 495.59C317.614 490.563 315.161 486.566 310.514 484.028C306.243 481.695 300.224 480.562 292.095 480.562ZM288.751 495.59C289.471 495.469 290.534 495.384 292.095 495.384C293.655 495.384 294.719 495.487 295.439 495.59C294.719 495.71 293.655 495.795 292.095 495.795C290.534 495.795 289.471 495.692 288.751 495.59Z" fill="#FF8AA3"/>
<path d="M283.451 530.806L283.297 529.708C282.834 526.432 282.594 523.104 282.594 519.776H263.952V507.974H320.237V512.503C321.181 511.988 321.918 511.645 321.969 511.611C323.907 510.376 325.502 508.798 326.548 506.979C327.577 505.178 328.109 503.171 328.109 501.01C328.109 500.443 328.109 500.015 328.058 499.723C327.989 499.054 327.8 498.539 327.492 498.213C327.217 497.922 326.908 497.802 326.514 497.802C326.051 497.802 325.588 497.99 325.108 498.368L324.73 498.659H324.25C321.884 498.522 320.323 497.682 319.603 496.138C318.008 492.724 321.866 487.441 322.312 486.857L322.432 486.703L322.587 486.583C324.027 485.554 325.537 484.833 327.097 484.404C327.063 484.404 325.554 484.627 325.554 484.627V480.219H345.07V483.101C345.533 483.049 345.996 483.032 346.459 483.032C348.826 483.032 351.055 483.615 353.096 484.765C355.137 485.914 356.835 487.595 358.155 489.756C359.459 491.901 360.23 494.508 360.436 497.459C360.539 498.642 360.59 499.843 360.59 501.01C360.59 508.489 358.807 514.596 355.291 519.159C351.81 523.67 347.454 526.964 342.326 528.919L342.155 528.988H341.914L341.709 529.005C340.817 529.005 337.421 528.782 331.693 525.917C330.407 525.266 329.704 524.545 329.344 523.825C328.383 524.339 327.423 524.768 326.463 525.111L326.308 525.163H326.137C325.588 525.214 325.073 525.231 324.576 525.231C318.145 525.231 316.259 521.852 315.693 519.742H301.561C301.561 523.07 301.321 526.398 300.858 529.674L300.704 530.772H283.434L283.451 530.806ZM342.017 496.978C342.069 498.179 342.103 499.054 342.103 499.62C342.103 504.063 341.4 508.077 340.011 511.542C339.685 512.348 339.342 513.12 338.965 513.875C340.371 512.657 341.554 511.268 342.48 509.707C343.904 507.322 344.624 504.629 344.624 501.713C344.624 501.301 344.59 500.666 344.521 499.809C344.418 498.865 344.144 498.093 343.664 497.562C343.132 496.961 342.703 496.893 342.429 496.893C342.292 496.893 342.155 496.91 342.017 496.961V496.978ZM331.059 483.941C332.602 484.01 334.06 484.404 335.432 485.073C335.449 484.559 335.398 484.199 335.346 483.975C335.123 483.924 334.609 483.821 333.494 483.821C332.722 483.821 331.882 483.873 331.059 483.924V483.941ZM339.428 484.765C339.599 484.679 339.788 484.593 339.959 484.507L339.411 484.473C339.411 484.576 339.411 484.662 339.428 484.765Z" fill="#FEDA00"/>
<path d="M343.801 481.487V483.443L337.901 483.134C337.901 483.134 338.536 485.45 337.798 487.628C338.141 487.148 338.467 486.839 338.467 486.839C341.039 485.141 343.715 484.3 346.476 484.3C348.62 484.3 350.626 484.815 352.478 485.861C354.33 486.908 355.857 488.417 357.074 490.407C358.275 492.397 358.978 494.764 359.167 497.543C359.27 498.71 359.321 499.876 359.321 501.009C359.321 508.23 357.64 514.029 354.296 518.369C350.935 522.709 346.802 525.831 341.897 527.718C341.897 527.718 341.845 527.718 341.743 527.718C341.022 527.718 337.85 527.546 332.31 524.767C330.39 523.806 330.081 522.691 330.578 521.611C329.155 522.571 327.663 523.36 326.085 523.909C325.57 523.944 325.073 523.961 324.61 523.961C318.573 523.961 316.996 520.719 316.79 518.472H300.292C300.361 522.177 300.12 525.865 299.606 529.502H284.566C284.051 525.848 283.811 522.177 283.88 518.472H265.221V509.243H318.934V514.749C320.546 513.668 322.501 512.759 322.501 512.759C324.782 511.335 326.497 509.603 327.646 507.613C328.795 505.606 329.378 503.41 329.378 500.991C329.378 500.374 329.378 499.894 329.326 499.568C329.223 498.59 328.915 497.835 328.4 497.303C327.886 496.772 327.251 496.497 326.497 496.497C325.742 496.497 325.022 496.772 324.301 497.32C316.31 496.909 323.324 487.594 323.324 487.594C325.57 485.999 327.954 485.21 330.458 485.21C332.19 485.21 333.802 485.621 335.294 486.462C335.689 486.685 336.066 486.942 336.426 487.217C336.615 486.342 337.026 484.129 336.34 483.117C336.049 482.688 334.9 482.551 333.494 482.551C330.681 482.551 326.857 483.117 326.857 483.117V481.487H343.801ZM334.591 518.077C335.963 517.288 337.146 516.773 337.146 516.773C339.873 515.109 342.017 512.982 343.56 510.375C345.104 507.767 345.876 504.885 345.876 501.729C345.876 501.3 345.841 500.631 345.773 499.722C345.636 498.453 345.258 497.458 344.607 496.72C343.955 495.982 343.217 495.622 342.411 495.622C341.828 495.622 341.245 495.828 340.662 496.257L340.714 496.754C340.782 498.058 340.817 499.019 340.817 499.636C340.817 503.942 340.148 507.75 338.81 511.095C337.712 513.84 336.289 516.156 334.591 518.094M346.373 478.931H324.284V484.095C323.461 484.489 322.638 484.969 321.849 485.536L321.523 485.759L321.283 486.084C320.151 487.577 316.618 492.775 318.436 496.686C319.071 498.058 320.597 499.739 324.181 499.928L325.125 499.979L325.879 499.396C326.051 499.259 326.308 499.104 326.497 499.104C326.617 499.207 326.72 499.448 326.771 499.859C326.771 499.996 326.805 500.322 326.805 501.026C326.805 502.998 326.359 504.731 325.416 506.361C324.541 507.887 323.221 509.225 321.506 510.375V506.704H262.648V521.079H281.307C281.359 524.047 281.599 526.997 282.01 529.913L282.319 532.126H301.818L302.127 529.913C302.539 526.997 302.779 524.047 302.83 521.079H314.749C315.915 524.012 318.916 526.568 324.559 526.568C325.09 526.568 325.656 526.551 326.222 526.5L326.565 526.465L326.874 526.362C327.56 526.122 328.246 525.831 328.932 525.505C329.446 526.088 330.167 526.62 331.11 527.083C336.924 529.999 340.439 530.308 341.691 530.308C341.914 530.308 342.034 530.308 342.034 530.308L342.394 530.274L342.772 530.136C348.105 528.078 352.65 524.664 356.285 519.947C359.973 515.161 361.842 508.797 361.842 501.009C361.842 499.791 361.791 498.556 361.688 497.32C361.465 494.181 360.642 491.402 359.218 489.069C357.795 486.702 355.925 484.867 353.679 483.614C351.449 482.362 348.997 481.727 346.424 481.727C346.39 481.727 346.356 481.727 346.322 481.727V478.914L346.373 478.931ZM343.132 504.182C343.217 503.496 343.269 502.793 343.32 502.072C343.32 502.793 343.252 503.496 343.132 504.182Z" fill="#FF8AA3"/>
<path d="M361.31 530.807L361.224 529.623C360.607 521.664 360.298 513.396 360.298 505.059C360.298 498.043 360.521 490.632 360.984 483.05L361.052 481.832H378.734L378.785 483.067C378.974 487.441 379.077 491.884 379.077 496.259C379.077 507.323 378.476 518.559 377.31 529.658L377.19 530.807H361.327H361.31Z" fill="#FEDA00"/>
<path d="M377.482 483.134C377.671 487.526 377.774 491.917 377.774 496.274C377.774 507.339 377.19 518.437 376.007 529.536H362.476C361.859 521.594 361.55 513.428 361.55 505.074C361.55 498.041 361.773 490.733 362.236 483.151H377.465M379.917 480.578H359.801L359.664 482.997C359.2 490.596 358.978 498.024 358.978 505.074C358.978 513.463 359.286 521.748 359.921 529.742L360.109 532.109H378.322L378.562 529.811C379.746 518.66 380.329 507.39 380.329 496.274C380.329 491.9 380.226 487.44 380.037 483.031L379.934 480.578H379.917Z" fill="#FF8AA3"/>
</g>
<defs>
<radialGradient id="paint0_radial_444_31608" cx="0" cy="0" r="1" gradientUnits="userSpaceOnUse" gradientTransform="translate(974.54 390.289) scale(12.5)">
<stop offset="0.42" stop-color="#FFA5AD"/>
<stop offset="0.86" stop-color="#FFDCCB"/>
<stop offset="1" stop-color="#FFF4EB"/>
</radialGradient>
<radialGradient id="paint1_radial_444_31608" cx="0" cy="0" r="1" gradientUnits="userSpaceOnUse" gradientTransform="translate(1037.04 390.789) scale(0.5)">
<stop offset="0.42" stop-color="#FFA5AD"/>
<stop offset="0.86" stop-color="#FFDCCB"/>
<stop offset="1" stop-color="#FFF4EB"/>
</radialGradient>
<radialGradient id="paint2_radial_444_31608" cx="0" cy="0" r="1" gradientUnits="userSpaceOnUse" gradientTransform="translate(269.337 423.161) scale(21.4371 21.4427)">
<stop offset="0.42" stop-color="#FFA5AD"/>
<stop offset="0.86" stop-color="#FFDCCB"/>
<stop offset="1" stop-color="#FFF4EB"/>
</radialGradient>
<radialGradient id="paint3_radial_444_31608" cx="0" cy="0" r="1" gradientUnits="userSpaceOnUse" gradientTransform="translate(377.437 423.161) scale(21.4371 21.4427)">
<stop offset="0.42" stop-color="#FFA5AD"/>
<stop offset="0.86" stop-color="#FFDCCB"/>
<stop offset="1" stop-color="#FFF4EB"/>
</radialGradient>
<clipPath id="clip0_444_31608">
<rect width="440.76" height="165.26" fill="white" transform="translate(639 308)"/>
</clipPath>
<clipPath id="clip1_444_31608">
<rect width="361" height="278" fill="white" transform="translate(139 282)"/>
</clipPath>
</defs>
</svg>
